<?xml version="1.0" encoding="utf-8"?>
<!-- Generator: Adobe Illustrator 27.4.0, SVG Export Plug-In . SVG Version: 6.00 Build 0)  -->
<svg version="1.1" xmlns="http://www.w3.org/2000/svg" xmlns:xlink="http://www.w3.org/1999/xlink" x="0px" y="0px"
	 viewBox="0 0 11.04 11.04" style="enable-background:new 0 0 11.04 11.04;" xml:space="preserve">
<style type="text/css">
	.st0{enable-background:new    ;}
	.st1{fill:#5AC006;}
	.st2{fill:#F75F04;}
	.st3{fill:#FFBF00;}
	.st4{fill:#071C53;}
	.st5{fill:#FFFFFF;}
</style>
<g id="Shape_4_copy_2_00000030473937803932462980000015249601756264899464_" class="st0">
	<g id="Shape_4_copy_2">
		<g>
			<path class="st1" d="M5.5,1.86C4.94,1.85,4.44,2.67,4.57,3.25C4.63,3.54,4.86,3.7,4.98,3.99c0.08,0.19,0.13,0.39,0.14,0.6
				c0.06,0.03,0.12,0.06,0.19,0.09c0-0.32,0-0.65,0-0.97C5.17,3.57,5.03,3.43,4.89,3.29c-0.02-0.04-0.03-0.1,0-0.14
				C4.93,3.1,5.01,3.08,5.08,3.11c0.08,0.08,0.16,0.15,0.23,0.23V2.78c0-0.08,0.06-0.14,0.14-0.14s0.14,0.06,0.14,0.14
				c0,0.19,0,0.37,0,0.56c0.09-0.08,0.19-0.15,0.28-0.23C5.94,3.08,6.02,3.1,6.06,3.15c0.03,0.04,0.02,0.09,0,0.14
				C5.9,3.43,5.75,3.57,5.59,3.71c0,0.32,0,0.65,0,0.97c0.06-0.03,0.12-0.06,0.19-0.09c0.01-0.22,0.06-0.42,0.14-0.6
				c0.14-0.31,0.39-0.44,0.47-0.74C6.52,2.69,6.04,1.86,5.5,1.86z M4.61,3.99C4.58,3.96,4.52,3.87,4.47,3.8
				C4.39,3.69,4.32,3.57,4.24,3.48C3.92,3.13,3.31,2.94,3.07,3.15C2.83,3.38,2.99,4.06,3.4,4.41c0.3,0.26,0.73,0.32,1.12,0.23
				c-0.25-0.23-0.5-0.46-0.75-0.7c-0.05-0.05-0.05-0.13,0-0.19c0.05-0.05,0.14-0.05,0.19,0C4.24,4,4.52,4.25,4.8,4.5
				c0.02-0.03,0.04-0.06,0.05-0.09C4.86,4.33,4.83,4.27,4.8,4.22C4.74,4.13,4.64,4.02,4.61,3.99z M7.85,3.15
				C7.61,2.94,6.99,3.13,6.67,3.48C6.59,3.57,6.52,3.69,6.44,3.81C6.39,3.87,6.32,3.96,6.3,3.99C6.26,4.03,6.17,4.13,6.11,4.23
				C6.08,4.28,6.04,4.34,6.06,4.41c0.01,0.03,0.02,0.07,0.05,0.09c0.28-0.25,0.57-0.5,0.85-0.75c0.05-0.04,0.13-0.04,0.17,0
				C7.18,3.8,7.19,3.89,7.14,3.95c-0.25,0.23-0.5,0.47-0.75,0.7c0.4,0.09,0.82,0.03,1.13-0.23C7.94,4.06,8.1,3.38,7.85,3.15z
				 M2.7,3.94C2.26,4.38,2.17,5.01,2.42,5.47c0.18,0.33,0.52,0.54,0.89,0.6C3.23,5.81,3.15,5.55,3.07,5.29
				C3.06,5.23,3.08,5.18,3.12,5.15C3.17,5.11,3.26,5.13,3.31,5.2C3.35,5.32,3.4,5.44,3.45,5.57C3.51,5.43,3.59,5.31,3.68,5.2
				C3.74,5.13,3.8,5.07,3.87,5.01C3.63,4.95,3.4,4.84,3.21,4.69C2.98,4.49,2.8,4.23,2.7,3.94z M7.03,5.01
				C7.1,5.07,7.16,5.13,7.22,5.2c0.09,0.11,0.17,0.24,0.23,0.37C7.5,5.44,7.55,5.32,7.59,5.2c0.05-0.07,0.13-0.08,0.19-0.05
				c0.04,0.03,0.06,0.08,0.05,0.14C7.75,5.55,7.67,5.81,7.59,6.08c0.36-0.06,0.7-0.27,0.89-0.6C8.73,5.01,8.64,4.38,8.2,3.94
				C8.1,4.23,7.92,4.49,7.69,4.69C7.5,4.84,7.27,4.95,7.03,5.01z M3.31,7.19C3.23,7.15,3.15,7.1,3.07,7.05
				C2.99,6.99,2.91,6.93,2.84,6.87c-0.02-0.04-0.03-0.1,0-0.14c0.03-0.06,0.11-0.08,0.19-0.05c0.03,0.03,0.06,0.06,0.09,0.09
				c0.04,0.04,0.09,0.07,0.14,0.09c0-0.15,0-0.31,0-0.46C3.06,6.38,2.87,6.32,2.7,6.22c-0.21-0.12-0.39-0.3-0.51-0.51
				c0.02,0.44,0.13,0.86,0.33,1.25c0.29,0.59,0.77,1.07,1.35,1.39c-0.15-0.19-0.27-0.39-0.37-0.6C3.41,7.57,3.35,7.38,3.31,7.19z
				 M8.2,6.22C8.03,6.32,7.84,6.38,7.64,6.4c0,0.15,0,0.31,0,0.46c0.05-0.03,0.1-0.06,0.14-0.09c0.03-0.03,0.06-0.06,0.09-0.09
				c0.07-0.03,0.15-0.01,0.19,0.05c0.03,0.04,0.02,0.09,0,0.14C7.99,6.93,7.91,6.99,7.83,7.05C7.75,7.1,7.67,7.15,7.59,7.19
				c-0.04,0.19-0.1,0.38-0.19,0.56c-0.1,0.22-0.22,0.42-0.37,0.6c0.58-0.32,1.06-0.8,1.35-1.39c0.19-0.39,0.3-0.81,0.33-1.25
				C8.59,5.92,8.41,6.09,8.2,6.22z"/>
		</g>
	</g>
</g>
<g id="Shape_5_00000082348222341517563380000011027149439119462786_" class="st0">
	<g id="Shape_5">
		<g>
			<path class="st2" d="M7.05,5.47C6.91,5.29,6.57,4.91,6.11,4.92C5.87,4.92,5.64,5.03,5.45,5.2C5.26,5.03,5.04,4.92,4.8,4.92
				C4.34,4.91,4,5.29,3.87,5.47C3.28,6.29,3.55,7.78,4.47,8.49c0.27,0.21,0.58,0.34,0.93,0.4c0,0.01,0,0.01,0,0.02
				c0.02,0,0.03-0.01,0.05-0.01c0.02,0,0.03,0.01,0.05,0.01c0-0.01,0-0.01,0-0.02c0.35-0.06,0.67-0.2,0.94-0.4
				C7.37,7.78,7.64,6.29,7.05,5.47z"/>
		</g>
	</g>
</g>
<g id="Shape_6_00000081623478877518137880000006881896571920021920_" class="st0">
	<g id="Shape_6">
		<g>
			<path class="st3" d="M6.24,6.12C5.96,5.83,5.69,5.52,5.45,5.2C5.21,5.52,4.94,5.83,4.66,6.12C4.33,6.46,3.97,6.77,3.59,7.05
				c0.35,0.25,0.67,0.53,0.98,0.83C4.89,8.2,5.18,8.54,5.45,8.91c0.27-0.36,0.56-0.7,0.89-1.02c0.31-0.3,0.63-0.58,0.98-0.83
				C6.93,6.77,6.57,6.46,6.24,6.12z"/>
		</g>
	</g>
</g>
<g id="Ellipse_2_00000150060817599512974020000001725877263805429652_" class="st0">
	<g id="Ellipse_2">
		<g>
			<path class="st4" d="M5.45,6.09c-0.52,0-0.94,0.42-0.94,0.93c0,0.52,0.42,0.93,0.94,0.93s0.94-0.42,0.94-0.93
				C6.39,6.51,5.97,6.09,5.45,6.09z"/>
		</g>
	</g>
</g>
<g id="Shape_7_00000099640873734014298180000014615385329096866196_" class="st0">
	<g id="Shape_7">
		<g>
			<path class="st5" d="M5.68,6.77C5.34,6.65,4.98,6.61,4.61,6.63C4.57,6.67,4.54,6.72,4.52,6.77C4.5,6.83,4.5,6.9,4.52,6.96
				c0.36-0.05,0.73-0.02,1.07,0.09c0.25,0.08,0.49,0.21,0.7,0.37c0.05-0.04,0.08-0.08,0.09-0.14c0.01-0.05,0.01-0.09,0-0.14
				C6.17,6.98,5.93,6.86,5.68,6.77z"/>
		</g>
	</g>
</g>
<g id="brasileiros_hortifruti_00000052816872027941977590000005450223583148256945_" class="st0">
	<g id="brasileiros_hortifruti">
		<g>
			<path class="st5" d="M1.15,5.3C1.2,5.26,1.2,5.23,1.23,5.09l0.05-0.27C1.3,4.7,1.32,4.57,1.3,4.48C1.28,4.35,1.17,4.24,1.02,4.21
				C0.78,4.17,0.7,4.35,0.67,4.4c0-0.02-0.01-0.07-0.05-0.12c-0.04-0.06-0.11-0.1-0.19-0.12C0.32,4.15,0.21,4.2,0.15,4.27
				c-0.06,0.08-0.08,0.17-0.1,0.28L0,4.88C-0.03,5.01-0.03,5.05,0.01,5.1c0.04,0.05,0.07,0.06,0.21,0.08l0.7,0.12
				C1.05,5.33,1.09,5.34,1.15,5.3z M0.52,4.74L0.49,4.91L0.23,4.86l0.03-0.15C0.28,4.58,0.3,4.46,0.43,4.48
				c0.04,0.01,0.09,0.04,0.1,0.1C0.54,4.62,0.52,4.73,0.52,4.74z M0.75,4.75c0.02-0.1,0.04-0.25,0.19-0.23
				c0.14,0.03,0.12,0.17,0.1,0.26L1,4.99L0.71,4.94L0.75,4.75z M0.61,3.55l0.65,0.35c0.1,0.05,0.15,0.08,0.21,0.07
				c0.04-0.01,0.08-0.04,0.1-0.08c0.02-0.05,0.02-0.09,0.01-0.13C1.56,3.7,1.51,3.67,1.41,3.61L1.17,3.49l0.02-0.04
				c0.05-0.09,0.08-0.12,0.29-0.13l0.18-0.01C1.8,3.3,1.89,3.3,1.94,3.2C1.98,3.13,1.96,3.05,1.9,3.01
				C1.83,2.98,1.68,2.98,1.59,2.99C1.48,3,1.42,3.02,1.35,3.07c0.01-0.05,0.03-0.12,0.02-0.2c-0.01-0.1-0.08-0.19-0.18-0.24
				c-0.1-0.05-0.25-0.08-0.37,0.03C0.74,2.73,0.69,2.83,0.65,2.91L0.5,3.19C0.43,3.31,0.41,3.34,0.43,3.4
				C0.46,3.47,0.48,3.48,0.61,3.55z M0.81,3.09c0.06-0.1,0.12-0.22,0.24-0.15C1.18,3,1.11,3.13,1.06,3.23L0.98,3.38L0.72,3.25
				L0.81,3.09z M1.95,2.64C1.99,2.73,2,2.76,2.04,2.79c0.05,0.05,0.14,0.06,0.21,0c0.08-0.08,0.05-0.15-0.01-0.27L2.2,2.46
				l0.34-0.32L2.6,2.17c0.12,0.06,0.19,0.1,0.27,0.02c0.07-0.07,0.06-0.17,0.01-0.21C2.85,1.94,2.82,1.93,2.74,1.89L2.08,1.58
				C1.93,1.51,1.87,1.48,1.8,1.49C1.75,1.5,1.7,1.52,1.67,1.56C1.62,1.6,1.6,1.65,1.59,1.69C1.58,1.75,1.61,1.81,1.67,1.97
				L1.95,2.64z M2.32,2.02L2.1,2.23L1.89,1.79L2.32,2.02z M3.94,1.14C3.9,1.05,3.81,0.96,3.7,0.95C3.6,0.93,3.43,0.95,3.35,0.97
				c-0.15,0.03-0.26,0.06-0.3-0.02C3.01,0.9,3.07,0.83,3.16,0.78c0.03-0.01,0.06-0.03,0.1-0.03c0.06,0,0.08,0.01,0.18,0.06
				c0.02,0.01,0.08,0.04,0.14,0.01c0.07-0.03,0.09-0.1,0.05-0.18C3.61,0.59,3.44,0.4,3.09,0.58C2.82,0.7,2.69,0.9,2.79,1.11
				c0.12,0.25,0.4,0.19,0.55,0.16C3.5,1.23,3.62,1.21,3.67,1.31c0.04,0.08-0.02,0.17-0.13,0.22C3.42,1.59,3.35,1.55,3.28,1.5
				c-0.05-0.03-0.11-0.1-0.2-0.05C2.99,1.49,3,1.59,3.02,1.63c0.05,0.1,0.25,0.29,0.63,0.1C3.97,1.58,4.04,1.34,3.94,1.14z
				 M4.38,1.19C4.4,1.3,4.41,1.36,4.46,1.39C4.5,1.41,4.55,1.42,4.59,1.41c0.05-0.01,0.09-0.05,0.1-0.07c0.03-0.05,0.02-0.11,0-0.22
				L4.53,0.38C4.5,0.27,4.49,0.21,4.44,0.18C4.4,0.15,4.35,0.15,4.31,0.15C4.26,0.17,4.23,0.2,4.21,0.23
				c-0.03,0.05-0.02,0.11,0,0.22L4.38,1.19z M6.06,1.17c0-0.04-0.02-0.08-0.04-0.09C5.99,1.04,5.94,1.04,5.85,1.04L5.43,1.03
				l0.01-0.74c0-0.11,0-0.17-0.04-0.22C5.37,0.04,5.33,0.02,5.28,0.02c-0.05,0-0.09,0.03-0.12,0.05c-0.04,0.04-0.04,0.1-0.05,0.21
				L5.11,1.02c0,0.14,0,0.18,0.04,0.22C5.2,1.29,5.23,1.29,5.37,1.29L5.84,1.3c0.09,0,0.14,0,0.18-0.03
				C6.05,1.24,6.06,1.21,6.06,1.17z M6.56,1.41l0.53,0.16C7.17,1.6,7.21,1.61,7.25,1.59c0.03-0.02,0.05-0.04,0.06-0.08
				c0.01-0.04,0-0.08-0.01-0.1C7.28,1.38,7.24,1.36,7.16,1.34L6.68,1.19l0.08-0.28l0.42,0.13c0.08,0.02,0.12,0.04,0.16,0.02
				C7.38,1.04,7.4,1.02,7.41,0.99c0.01-0.04,0-0.07-0.01-0.09C7.38,0.85,7.34,0.84,7.25,0.82L6.83,0.69L6.9,0.46L7.36,0.6
				c0.08,0.02,0.12,0.04,0.16,0.02C7.56,0.6,7.58,0.58,7.59,0.55c0.01-0.04,0-0.07-0.01-0.09C7.56,0.41,7.52,0.4,7.43,0.38
				L6.92,0.22C6.79,0.18,6.75,0.17,6.69,0.2C6.63,0.24,6.63,0.26,6.58,0.4L6.38,1.08C6.34,1.21,6.33,1.25,6.36,1.31
				C6.39,1.36,6.42,1.37,6.56,1.41z M7.8,1.91C7.86,1.9,7.88,1.85,7.94,1.75l0.38-0.65c0.06-0.1,0.09-0.15,0.07-0.21
				c-0.01-0.04-0.04-0.08-0.08-0.1C8.28,0.76,8.23,0.76,8.2,0.77C8.14,0.78,8.11,0.83,8.05,0.93L7.67,1.59
				c-0.06,0.1-0.09,0.15-0.07,0.21c0.01,0.04,0.04,0.08,0.08,0.1C7.72,1.92,7.77,1.92,7.8,1.91z M8.19,2.15
				c0,0.04,0.02,0.09,0.05,0.12c0.04,0.04,0.08,0.05,0.12,0.05c0.06,0,0.1-0.04,0.18-0.12L8.73,2l0.03,0.03
				c0.07,0.07,0.1,0.11,0.05,0.31L8.76,2.51c-0.04,0.15-0.05,0.22,0.02,0.3c0.06,0.06,0.14,0.06,0.2,0.01
				c0.05-0.05,0.09-0.19,0.11-0.29c0.02-0.1,0.01-0.16-0.01-0.25c0.04,0.03,0.11,0.06,0.18,0.07c0.1,0.02,0.2-0.03,0.28-0.11
				c0.08-0.08,0.14-0.22,0.07-0.36C9.57,1.8,9.49,1.72,9.43,1.66L9.2,1.44c-0.1-0.09-0.13-0.12-0.19-0.12
				c-0.07,0-0.09,0.02-0.19,0.13L8.31,1.97C8.23,2.05,8.19,2.1,8.19,2.15z M9.08,1.64l0.13,0.13c0.08,0.08,0.18,0.17,0.08,0.27
				c-0.1,0.1-0.2,0-0.29-0.08L8.88,1.84L9.08,1.64z M9.31,3.62C9.51,4,9.86,4.04,10.18,3.87c0.32-0.17,0.48-0.46,0.28-0.86
				C10.26,2.63,9.91,2.6,9.6,2.76C9.26,2.94,9.12,3.24,9.31,3.62z M10.23,3.14c0.14,0.27-0.14,0.41-0.2,0.45
				C9.96,3.62,9.86,3.66,9.78,3.66C9.68,3.65,9.59,3.6,9.54,3.5C9.48,3.39,9.5,3.31,9.52,3.26C9.55,3.2,9.6,3.12,9.75,3.05
				C9.97,2.93,10.14,2.96,10.23,3.14z M10.58,4.26c-0.27,0.04-0.3,0.33-0.31,0.48c-0.01,0.17-0.02,0.29-0.14,0.31
				c-0.09,0.01-0.15-0.07-0.17-0.18c-0.02-0.14,0.04-0.19,0.1-0.24c0.05-0.04,0.12-0.07,0.11-0.18c-0.02-0.1-0.11-0.12-0.16-0.11
				C9.91,4.35,9.67,4.5,9.74,4.91C9.79,5.26,10,5.39,10.22,5.36c0.1-0.02,0.21-0.08,0.25-0.17c0.05-0.1,0.07-0.26,0.08-0.35
				c0.01-0.15,0.02-0.27,0.1-0.28c0.07-0.01,0.12,0.06,0.13,0.16c0,0.03,0.01,0.07,0,0.1c-0.02,0.06-0.03,0.07-0.11,0.15
				c-0.02,0.01-0.06,0.07-0.05,0.14c0.01,0.07,0.08,0.11,0.16,0.1c0.06-0.01,0.29-0.12,0.22-0.51C10.97,4.42,10.81,4.23,10.58,4.26z
				 M1.69,7.49C1.71,7.45,1.71,7.4,1.7,7.36C1.68,7.31,1.64,7.28,1.61,7.27c-0.05-0.02-0.11,0-0.22,0.03L1.19,7.38L1.03,6.95
				l0.21-0.08C1.35,6.83,1.4,6.81,1.43,6.76c0.02-0.04,0.02-0.09,0.01-0.13C1.41,6.58,1.37,6.55,1.35,6.54
				C1.29,6.51,1.24,6.53,1.13,6.57L0.41,6.83C0.31,6.87,0.25,6.89,0.22,6.94C0.21,6.98,0.21,7.03,0.22,7.07
				c0.02,0.05,0.06,0.08,0.09,0.09c0.05,0.02,0.11,0.01,0.22-0.03l0.26-0.1l0.16,0.43l-0.26,0.1C0.57,7.6,0.52,7.62,0.49,7.67
				C0.47,7.71,0.47,7.76,0.49,7.8C0.5,7.85,0.54,7.88,0.57,7.89C0.63,7.92,0.68,7.9,0.79,7.86L1.5,7.6
				C1.61,7.56,1.67,7.54,1.69,7.49z M2.25,8.19C1.97,7.86,1.63,7.9,1.36,8.12c-0.3,0.24-0.38,0.57-0.11,0.89
				c0.28,0.34,0.62,0.3,0.9,0.08C2.43,8.86,2.52,8.54,2.25,8.19z M1.94,8.84C1.88,8.89,1.8,8.94,1.71,8.96
				c-0.1,0.01-0.2-0.02-0.27-0.11C1.37,8.76,1.37,8.67,1.38,8.62C1.4,8.55,1.43,8.47,1.56,8.37c0.19-0.16,0.37-0.16,0.49-0.01
				C2.24,8.59,2,8.79,1.94,8.84z M3.31,9.16L3.04,8.99C2.93,8.91,2.89,8.89,2.83,8.91C2.76,8.93,2.75,8.95,2.67,9.07L2.28,9.69
				c-0.06,0.1-0.09,0.15-0.08,0.2C2.21,9.94,2.24,9.98,2.27,10c0.04,0.03,0.09,0.03,0.13,0.02c0.06-0.01,0.09-0.06,0.15-0.16
				l0.14-0.23l0.04,0.02c0.09,0.05,0.12,0.09,0.11,0.29l0,0.18c0,0.15-0.01,0.23,0.09,0.29c0.07,0.04,0.15,0.03,0.19-0.03
				c0.04-0.06,0.05-0.21,0.04-0.3c-0.01-0.1-0.02-0.16-0.07-0.24c0.05,0.02,0.12,0.04,0.19,0.03c0.1,0,0.19-0.07,0.25-0.16
				c0.06-0.1,0.1-0.24,0-0.37C3.48,9.26,3.38,9.2,3.31,9.16z M3.25,9.56c-0.08,0.12-0.2,0.05-0.3-0.02L2.81,9.45l0.15-0.24l0.15,0.1
				C3.22,9.37,3.33,9.44,3.25,9.56z M4.74,9.72L4.07,9.53C3.98,9.51,3.93,9.5,3.89,9.52C3.86,9.54,3.84,9.57,3.83,9.6
				c-0.01,0.04,0,0.08,0.02,0.1C3.87,9.75,3.91,9.76,4,9.78l0.18,0.05l-0.19,0.72c-0.03,0.11-0.04,0.17-0.01,0.22
				c0.02,0.04,0.06,0.07,0.1,0.08c0.05,0.01,0.1,0,0.13-0.02c0.05-0.03,0.07-0.08,0.1-0.2l0.19-0.72l0.18,0.05
				C4.76,9.99,4.81,10,4.85,9.98C4.88,9.96,4.91,9.93,4.92,9.9c0.01-0.04,0-0.08-0.02-0.1C4.88,9.75,4.83,9.74,4.74,9.72z
				 M5.36,9.75c-0.05,0-0.1,0.02-0.12,0.05C5.2,9.83,5.2,9.89,5.19,10.01l-0.03,0.76c0,0.11-0.01,0.17,0.03,0.22
				c0.03,0.03,0.07,0.05,0.12,0.05c0.05,0,0.1-0.02,0.12-0.05c0.04-0.04,0.05-0.1,0.05-0.21l0.03-0.76c0-0.11,0.01-0.17-0.03-0.22
				C5.45,9.77,5.4,9.75,5.36,9.75z M6.61,10.14L6.28,10.2L6.23,9.95l0.4-0.08c0.08-0.02,0.13-0.02,0.15-0.06
				c0.02-0.03,0.03-0.06,0.02-0.09C6.8,9.68,6.78,9.66,6.75,9.64c-0.04-0.02-0.08-0.02-0.17,0L6.14,9.73C6,9.75,5.96,9.76,5.93,9.81
				C5.89,9.87,5.9,9.9,5.92,10.04l0.14,0.72c0.02,0.11,0.03,0.17,0.08,0.2c0.04,0.03,0.08,0.03,0.12,0.03
				c0.05-0.01,0.09-0.04,0.11-0.07c0.03-0.05,0.02-0.11,0-0.22l-0.05-0.27l0.33-0.06c0.08-0.02,0.12-0.02,0.15-0.06
				c0.02-0.03,0.03-0.06,0.02-0.09c-0.01-0.04-0.03-0.06-0.05-0.08C6.73,10.12,6.69,10.13,6.61,10.14z M8.27,9.85
				C8.17,9.8,8.11,9.79,8.02,9.78C8.06,9.75,8.11,9.7,8.15,9.63c0.04-0.09,0.04-0.2-0.02-0.3c-0.05-0.1-0.17-0.2-0.33-0.18
				c-0.09,0.01-0.2,0.06-0.27,0.1L7.25,9.4C7.13,9.47,7.1,9.49,7.08,9.55C7.06,9.62,7.07,9.64,7.14,9.77l0.34,0.65
				c0.05,0.1,0.08,0.15,0.14,0.17c0.04,0.01,0.09,0.01,0.13-0.01c0.05-0.02,0.07-0.07,0.08-0.1c0.02-0.06-0.01-0.11-0.06-0.21
				l-0.13-0.24l0.04-0.02c0.09-0.05,0.14-0.06,0.31,0.05l0.15,0.09c0.13,0.08,0.2,0.12,0.29,0.07c0.07-0.04,0.11-0.12,0.07-0.18
				C8.48,9.98,8.35,9.89,8.27,9.85z M7.69,9.75L7.54,9.84L7.41,9.58L7.57,9.5c0.1-0.05,0.22-0.12,0.29,0.01
				C7.92,9.63,7.8,9.7,7.69,9.75z M9.09,8.28C9,8.2,8.96,8.16,8.9,8.16c-0.04,0-0.09,0.02-0.12,0.05C8.75,8.25,8.74,8.3,8.74,8.33
				c0,0.06,0.04,0.1,0.12,0.18l0.35,0.34c0.08,0.08,0.21,0.2,0.05,0.36C9.1,9.37,8.96,9.24,8.88,9.17L8.54,8.84
				C8.46,8.76,8.42,8.71,8.36,8.72c-0.04,0-0.09,0.02-0.12,0.05C8.2,8.8,8.19,8.85,8.19,8.88c0,0.06,0.04,0.1,0.12,0.18l0.33,0.32
				c0.03,0.03,0.17,0.16,0.3,0.19c0.23,0.06,0.39-0.09,0.51-0.21C9.58,9.24,9.67,9.09,9.62,8.9C9.6,8.79,9.52,8.7,9.41,8.6
				L9.09,8.28z M10.25,7.75L9.59,7.42l0.08-0.17c0.04-0.08,0.06-0.13,0.05-0.17C9.71,7.05,9.68,7.01,9.65,7
				c-0.04-0.02-0.08-0.01-0.1,0C9.5,7.01,9.48,7.05,9.44,7.13L9.13,7.75C9.09,7.84,9.06,7.88,9.08,7.93
				c0.01,0.03,0.04,0.06,0.07,0.08c0.04,0.02,0.08,0.01,0.1,0C9.3,8,9.32,7.95,9.36,7.87L9.44,7.7l0.67,0.33
				c0.1,0.05,0.16,0.08,0.21,0.06c0.04-0.01,0.08-0.05,0.1-0.08c0.02-0.05,0.02-0.1,0.01-0.13C10.41,7.83,10.36,7.8,10.25,7.75z
				 M10.63,6.62L9.88,6.45C9.77,6.42,9.72,6.41,9.66,6.44C9.63,6.46,9.6,6.5,9.59,6.54C9.58,6.6,9.59,6.64,9.61,6.67
				c0.03,0.05,0.09,0.06,0.2,0.09l0.74,0.17c0.11,0.03,0.17,0.04,0.22,0.01c0.04-0.02,0.06-0.06,0.08-0.1c0.01-0.05,0-0.1-0.02-0.13
				C10.79,6.66,10.74,6.65,10.63,6.62z"/>
		</g>
	</g>
</g>
</svg>
