<?xml version="1.0" encoding="utf-8"?>
<!-- Generator: Adobe Illustrator 27.4.0, SVG Export Plug-In . SVG Version: 6.00 Build 0)  -->
<svg version="1.1" xmlns="http://www.w3.org/2000/svg" xmlns:xlink="http://www.w3.org/1999/xlink" x="0px" y="0px"
	 viewBox="0 0 19.2 19.2" style="enable-background:new 0 0 19.2 19.2;" xml:space="preserve">
<style type="text/css">
	.st0{enable-background:new    ;}
	.st1{fill:#FFFFFF;}
	.st2{fill:#EC581E;}
	.st3{fill:#6DA40D;}
</style>
<g id="fruts_00000109031936954439311450000013622310638063123330_" class="st0">
	<g id="fruts">
		<g>
			<path class="st1" d="M2.15,13.86h0.11c0.36,0,0.65-0.28,0.65-0.64s-0.29-0.65-0.65-0.65H2.15C1.12,12.57,0,13.26,0,14.83v3.7
				c0,0.35,0.29,0.64,0.65,0.64s0.65-0.29,0.65-0.64V15.9h0.83c0.33,0,0.59-0.27,0.59-0.6c0-0.33-0.26-0.59-0.59-0.59H1.31
				C1.34,14.33,1.52,13.86,2.15,13.86z M5.07,14.66c-1.09,0-2,0.9-2,2v1.88c0,0.35,0.3,0.64,0.65,0.64c0.36,0,0.65-0.29,0.65-0.64
				v-1.88c0-0.39,0.31-0.71,0.7-0.71c0.3,0,0.56,0.19,0.66,0.48c0.11,0.34,0.49,0.52,0.83,0.41c0.33-0.12,0.52-0.49,0.4-0.83
				C6.68,15.2,5.92,14.66,5.07,14.66z M10.89,14.67c-0.37,0-0.66,0.28-0.66,0.65v1.84c0,0.38-0.31,0.7-0.7,0.7s-0.72-0.32-0.72-0.7
				v-1.84c0-0.37-0.28-0.65-0.65-0.65c-0.35,0-0.65,0.28-0.65,0.65v1.84c0,1.1,0.9,2.01,2.01,2.01c1.1,0,2-0.9,2-2.01v-1.84
				C11.54,14.96,11.24,14.67,10.89,14.67z M14.52,17.88h-0.11c-0.71,0-0.85-0.58-0.85-0.97V15.9h0.83c0.33,0,0.59-0.26,0.59-0.59
				c0-0.33-0.26-0.6-0.59-0.6h-0.83v-1.49c0-0.35-0.29-0.64-0.65-0.64c-0.36,0-0.65,0.29-0.65,0.64v3.7c0,1.57,1.12,2.26,2.15,2.26
				h0.11c0.36,0,0.65-0.29,0.65-0.65C15.17,18.16,14.88,17.88,14.52,17.88z M17.56,16.35c-0.33-0.08-0.48-0.22-0.47-0.28
				c0.02-0.12,0.5-0.24,1.1,0.07c0.32,0.14,0.69-0.01,0.83-0.33c0.14-0.32-0.02-0.7-0.33-0.84c-0.33-0.15-0.72-0.29-1.25-0.29
				c-0.89-0.01-1.69,0.55-1.75,1.28c-0.05,0.58,0.31,1.19,1.62,1.56c0.24,0.06,0.47,0.17,0.47,0.26c0,0.18-0.65,0.22-1.38-0.1
				c-0.32-0.11-0.69,0.04-0.81,0.37c-0.12,0.32,0.04,0.7,0.37,0.82c0.43,0.19,1,0.36,1.52,0.34c1.2-0.04,1.72-0.75,1.72-1.42
				C19.2,17.35,18.99,16.76,17.56,16.35z"/>
		</g>
	</g>
</g>
<g id="Shape_1_00000129183385340436136630000011274428797308387491_" class="st0">
	<g id="Shape_1">
		<g>
			<path class="st2" d="M11.75,2.44c-0.78-0.42-1.73-0.67-2.82-0.64C6.4,1.86,3.61,3.53,3.03,5.93C2.97,6.21,2.93,6.52,2.93,6.84
				c-0.01,0.94,0.45,2.45,2.04,4.07c1.41,1.43,2.89,2.04,3.66,2.15c-0.79-0.6-1.35-1.39-1.54-2.31C7,10.38,6.98,9.96,7.05,9.47
				c0.12-0.85,0.57-1.98,0.67-2.57c0.03-0.15,0.04-0.35-0.06-0.57c-0.08-0.17-0.22-0.3-0.39-0.4C7.99,5.4,8.82,5.33,9.41,5.68
				c0.25,0.15,0.51,0.39,0.65,0.72c0.23,0.56,0,1.06-0.22,1.93C9.7,8.85,9.62,9.37,9.66,9.97c0.03,0.51,0.19,0.9,0.41,1.22
				c0.33,0.49,0.69,0.7,0.95,0.78c0.31,0.09,0.64,0.08,0.95-0.02c1.37-1.09,2.34-2.77,2.61-4.2c0.06-0.31,0.08-0.59,0.08-0.86
				C14.63,4.95,13.25,3.25,11.75,2.44z M9.42,4.97c-0.69,0-1.25-0.57-1.25-1.28c0-0.71,0.56-1.28,1.25-1.28
				c0.69,0,1.25,0.57,1.25,1.28C10.67,4.4,10.11,4.97,9.42,4.97z"/>
		</g>
	</g>
</g>
<g id="Shape_1_copy_00000127011475894198206070000002143245946608373436_" class="st0">
	<g id="Shape_1_copy">
		<g>
			<path class="st3" d="M13.06,1.09c-0.23,0.41-0.28,0.9-0.2,1.41c-0.11,0.04-0.22,0.09-0.33,0.13c-0.05,0.02-0.08,0.08-0.07,0.13
				c0.02,0.06,0.08,0.09,0.13,0.07c0.13-0.04,0.26-0.09,0.39-0.13c0.43,0.24,0.88,0.34,1.31,0.27c0.98-0.17,1.86-1.25,1.97-2.81
				C14.84-0.27,13.55,0.21,13.06,1.09z"/>
		</g>
	</g>
</g>
</svg>
